<?xml version="1.0" encoding="utf-8"?>
<svg version="1.1" x="0px" y="0px" viewBox="7.629 7.629 49.418 38.95" enable-background="new 7.5 7.5 50 50" xmlns="http://www.w3.org/2000/svg">
  <path d="M 56.814 16.7 C 56.814 14.761 55.236 13.182 53.295 13.182 C 51.565 13.182 50.13 14.439 49.839 16.086 L 25.227 10.45 C 24.761 9.051 23.455 8.033 21.902 8.033 C 19.961 8.033 18.382 9.612 18.382 11.552 C 18.382 12.377 18.679 13.126 19.156 13.727 L 13.239 23.77 C 12.712 23.455 12.103 23.262 11.446 23.262 C 9.505 23.262 7.926 24.841 7.926 26.781 C 7.926 28.721 9.505 30.301 11.446 30.301 C 11.842 30.301 12.216 30.221 12.571 30.1 L 25.06 40.695 C 24.66 41.266 24.421 41.958 24.421 42.706 C 24.421 44.646 26 46.226 27.941 46.226 C 29.71 46.226 31.164 44.909 31.409 43.206 L 47.4 43.206 C 47.645 44.908 49.099 46.226 50.869 46.226 C 52.809 46.226 54.388 44.647 54.388 42.706 C 54.388 40.957 53.102 39.515 51.427 39.245 L 53.744 20.174 C 55.472 19.952 56.814 18.488 56.814 16.7 Z M 48.769 39.9 L 38.268 25.5 C 39 24.927 39.493 24.077 39.594 23.103 L 50.711 19.07 C 51.234 19.641 51.939 20.035 52.737 20.164 L 50.42 39.234 C 49.807 39.314 49.243 39.545 48.769 39.9 Z M 30.031 39.893 L 35.672 26.214 C 35.818 26.233 35.962 26.258 36.113 26.258 C 36.568 26.258 37.001 26.164 37.4 26.006 L 48.053 40.616 C 47.712 41.075 47.485 41.615 47.4 42.206 L 31.409 42.206 C 31.273 41.26 30.766 40.44 30.031 39.893 Z M 14.904 26.175 C 14.785 25.498 14.473 24.892 14.026 24.407 L 19.898 14.439 C 20.468 14.835 21.157 15.072 21.902 15.072 C 22.715 15.072 23.456 14.783 24.052 14.318 L 33.023 21.089 C 32.82 21.467 32.687 21.882 32.634 22.326 L 14.904 26.175 Z M 34.076 21.269 C 34.078 21.267 34.082 21.266 34.084 21.263 C 34.086 21.261 34.086 21.258 34.088 21.256 C 34.547 20.631 35.28 20.221 36.113 20.221 C 37.502 20.221 38.632 21.351 38.632 22.74 C 38.632 24.129 37.502 25.26 36.113 25.26 C 35.922 25.26 35.736 25.234 35.557 25.194 C 35.555 25.194 35.554 25.192 35.553 25.192 C 35.549 25.191 35.545 25.192 35.542 25.19 C 34.427 24.93 33.593 23.934 33.593 22.741 C 33.594 22.189 33.775 21.684 34.076 21.269 Z M 53.296 14.183 C 54.685 14.183 55.815 15.312 55.815 16.701 C 55.815 18.09 54.685 19.221 53.296 19.221 C 52.445 19.221 51.695 18.794 51.238 18.146 C 51.236 18.144 51.235 18.142 51.233 18.14 C 50.947 17.731 50.777 17.237 50.777 16.702 C 50.777 15.312 51.907 14.183 53.296 14.183 Z M 49.818 17.108 C 49.864 17.501 49.968 17.873 50.133 18.215 L 39.562 22.05 C 39.241 20.439 37.818 19.22 36.113 19.22 C 35.132 19.22 34.245 19.626 33.605 20.276 L 24.756 13.596 C 25.171 13.019 25.421 12.317 25.421 11.553 C 25.421 11.542 25.418 11.532 25.418 11.521 L 49.818 17.108 Z M 21.903 9.034 C 23.292 9.034 24.422 10.164 24.422 11.553 C 24.422 12.942 23.292 14.073 21.903 14.073 C 20.514 14.073 19.383 12.943 19.383 11.553 C 19.383 10.164 20.514 9.034 21.903 9.034 Z M 8.928 26.782 C 8.928 25.393 10.058 24.263 11.448 24.263 C 12.837 24.263 13.967 25.393 13.967 26.782 C 13.967 27.812 13.344 28.698 12.456 29.088 C 12.454 29.089 12.452 29.09 12.45 29.091 C 12.142 29.226 11.804 29.302 11.448 29.302 C 10.058 29.302 8.928 28.172 8.928 26.782 Z M 14.924 27.194 L 32.655 23.345 C 32.86 24.516 33.64 25.488 34.697 25.955 L 29.146 39.415 C 28.769 39.276 28.366 39.188 27.94 39.188 C 27.109 39.188 26.355 39.49 25.752 39.972 L 13.53 29.604 C 14.29 29.04 14.807 28.181 14.924 27.194 Z M 27.941 45.226 C 26.552 45.226 25.421 44.096 25.421 42.706 C 25.421 42.027 25.694 41.412 26.133 40.959 C 26.134 40.957 26.137 40.957 26.138 40.955 C 26.14 40.953 26.14 40.95 26.142 40.947 C 26.6 40.48 27.236 40.188 27.94 40.188 C 29.329 40.188 30.459 41.317 30.459 42.706 C 30.46 44.096 29.33 45.226 27.941 45.226 Z M 53.388 42.706 C 53.388 44.096 52.258 45.226 50.869 45.226 C 49.479 45.226 48.349 44.096 48.349 42.706 C 48.349 41.317 49.479 40.188 50.869 40.188 C 52.258 40.189 53.388 41.318 53.388 42.706 Z"/>
</svg>